<svg width="14" height="14" viewBox="0 0 14 14" fill="none" xmlns="http://www.w3.org/2000/svg">
<path d="M12.5454 3.97217L11.2387 2.66549C11.2037 2.6305 11.1562 2.61084 11.1067 2.61084C11.0572 2.61084 11.0098 2.6305 10.9747 2.66549L5.32001 8.32023L3.0253 6.02552C2.9903 5.99052 2.94283 5.97086 2.89333 5.97086C2.84383 5.97086 2.79636 5.99052 2.76135 6.02552L1.45468 7.33219C1.41968 7.3672 1.40002 7.41467 1.40002 7.46417C1.40002 7.51367 1.41968 7.56114 1.45468 7.59614L5.18804 11.3295C5.22304 11.3645 5.27051 11.3842 5.32001 11.3842C5.36951 11.3842 5.41698 11.3645 5.45199 11.3295L12.5454 4.23612C12.5804 4.20111 12.6 4.15364 12.6 4.10414C12.6 4.05465 12.5804 4.00717 12.5454 3.97217Z" fill="#384347"/>
</svg>
