<svg width="14" height="14" viewBox="0 0 14 14" fill="none" xmlns="http://www.w3.org/2000/svg">
<g clip-path="url(#clip0)">
<path d="M12.5782 7.51939C12.0313 6.88132 11.2202 6.43787 10.1446 6.1887C10.8984 5.84233 11.3541 5.60842 11.5121 5.48695C11.8949 5.20133 12.1835 4.88225 12.3776 4.52987C12.5721 4.17737 12.6692 3.7885 12.6692 3.36321C12.6692 2.96828 12.6055 2.59765 12.4778 2.25127C12.3502 1.90483 12.1528 1.58888 11.8854 1.30332C11.612 1.01783 11.3021 0.786796 10.9558 0.610576C10.6337 0.452649 10.342 0.334179 10.0807 0.2552C9.45489 0.0911108 8.87458 0.00906639 8.33992 0.00906639H7.66543C7.54393 0.00906639 7.4207 0.00753404 7.29617 0.00446934C7.17173 0.00159619 7.10641 0 7.10034 0C7.07005 0 7.02743 0.00159619 6.97258 0.00450127C6.9179 0.00756596 6.87525 0.00909831 6.84492 0.00909831L6.4347 0.0182605L2.97131 0.13673L0.601597 0.191448L0.638054 0.947884C1.14839 1.0148 1.49489 1.05441 1.67711 1.06648C1.987 1.08471 2.19664 1.13039 2.30605 1.20321C2.37296 1.2519 2.40942 1.28832 2.41548 1.31261C2.4762 1.44628 2.50953 1.77743 2.51572 2.30612C2.53998 3.20545 2.56741 4.43286 2.5977 5.98835L2.61593 10.5182C2.61593 11.2959 2.58864 11.8855 2.53395 12.2864C2.50966 12.4323 2.44578 12.5872 2.3425 12.7513C2.06298 12.8667 1.68931 12.9609 1.22143 13.0338C1.08176 13.052 0.875121 13.0884 0.601725 13.1433L0.583496 14C2.03568 13.9513 2.86203 13.918 3.0628 13.8997C4.36303 13.8206 5.26852 13.7873 5.77889 13.7994L7.57435 13.8357C8.27945 13.86 8.88096 13.8265 9.37913 13.7355C10.169 13.5897 10.7856 13.4072 11.2294 13.1885C11.6789 12.9698 12.1042 12.6416 12.5052 12.2042C12.8093 11.8701 13.0247 11.5146 13.1523 11.1377C13.3286 10.6214 13.4166 10.1323 13.4166 9.67039C13.4168 8.88062 13.1373 8.16351 12.5782 7.51939ZM5.44164 1.05751C5.91558 0.978531 6.31055 0.939041 6.6265 0.939041C7.66549 0.939041 8.44041 1.16695 8.95072 1.62263C9.46689 2.07825 9.72529 2.64646 9.72529 3.32695C9.72529 4.29316 9.45499 4.97368 8.91423 5.36861C8.37347 5.76351 7.57135 5.96105 6.50803 5.96105C6.107 5.96105 5.77585 5.93982 5.51462 5.8973C5.50846 5.69066 5.50543 5.45675 5.50543 5.19542L5.51462 4.30222C5.52062 3.34834 5.50239 2.50073 5.4599 1.75929C5.44771 1.55881 5.44164 1.32503 5.44164 1.05751ZM9.99894 11.5845C9.7741 12.0219 9.40333 12.3653 8.88703 12.6145C8.37047 12.8637 7.71415 12.9881 6.91825 12.9881C6.52935 12.9881 6.104 12.8912 5.64222 12.6967C5.56931 12.5206 5.53282 12.3866 5.53269 12.2955L5.50543 9.83457L5.51462 8.25778V6.94527C5.67871 6.88451 5.98559 6.85419 6.43521 6.85419C7.44997 6.85419 8.20031 6.95143 8.68645 7.14581C9.19075 7.34042 9.6192 7.72319 9.97164 8.29437C10.2207 8.69552 10.3453 9.24232 10.3453 9.93507C10.3452 10.6094 10.2297 11.1592 9.99894 11.5845Z" fill="black"/>
</g>
<defs>
<clipPath id="clip0">
<rect width="14" height="14" fill="white"/>
</clipPath>
</defs>
</svg>
