<svg width="14" height="14" viewBox="0 0 14 14" fill="none" xmlns="http://www.w3.org/2000/svg">
<path d="M11.3384 0.0228256C11.1259 0.0380852 10.9192 0.0518444 10.7186 0.0639116C9.81925 0.11847 9.16899 0.145892 8.76806 0.145892C8.56144 0.145892 8.33957 0.139731 8.1027 0.127664L5.21352 0L5.0403 0.938818C5.10102 0.950885 5.21652 0.963144 5.38668 0.975307C6.01245 1.01164 6.45 1.09681 6.69913 1.23047V1.57685L6.62622 2.03247L6.42574 3.26294L6.27984 3.83719L6.01551 5.26814C6.01551 5.27431 6.00485 5.30926 5.98359 5.37308C5.96233 5.43683 5.93494 5.52947 5.90161 5.65098C5.86812 5.77257 5.83023 5.91387 5.78761 6.07486C5.74499 6.23582 5.69643 6.43946 5.64172 6.68557C5.58703 6.9316 5.53535 7.1884 5.48679 7.4557L5.37735 8.03908L4.86702 10.4818L4.62089 11.7484C4.54794 12.1376 4.42347 12.4444 4.24725 12.6691C4.00418 12.7907 3.65174 12.9091 3.18993 13.0247C2.74638 13.14 2.51247 13.2008 2.48818 13.2069L2.33325 13.9818C2.47898 13.9697 2.77671 13.9424 3.22642 13.8997C4.03457 13.8268 4.5632 13.7934 4.81227 13.7995L6.61699 13.8176C7.38249 13.8967 7.82298 13.9483 7.93835 13.9727C8.05382 13.9908 8.13893 14 8.19355 14C8.30302 14 8.43052 13.9939 8.57635 13.9818C8.60671 13.9758 8.67666 13.9727 8.786 13.9727C8.79813 13.912 8.82542 13.7873 8.86801 13.5988C8.90431 13.4226 8.9256 13.2464 8.93183 13.0701C8.74938 13.0399 8.54903 13.0094 8.33006 12.9792C7.9961 12.9427 7.63437 12.8788 7.24545 12.7878C7.22744 12.6663 7.22434 12.5843 7.23647 12.5417L7.34597 12.1315L7.73794 9.98972L8.08428 8.5496L8.64033 5.71498C8.77387 5.06479 8.97444 4.13526 9.242 2.92592C9.26636 2.69505 9.30569 2.44588 9.36053 2.17849C9.43338 1.83218 9.50646 1.56488 9.57924 1.3764C9.80408 1.28532 10.1111 1.19118 10.4998 1.09394C10.8282 1.02112 11.1592 0.92691 11.4933 0.811473C11.5299 0.677776 11.5696 0.52285 11.6119 0.34663C11.6364 0.231097 11.6546 0.115724 11.6666 0.000319239C11.6605 9.57717e-05 11.5511 0.00766173 11.3384 0.0228256Z" fill="black"/>
</svg>
