<svg width="44" height="23" viewBox="0 0 44 23" fill="none" xmlns="http://www.w3.org/2000/svg">
<path d="M35.472 22.453L35.534 22.391C35.559 22.371 35.58 22.341 35.6 22.311C35.62 22.281 35.64 22.261 35.658 22.231L35.706 22.161L43.09 8.28C43.47 7.566 43.67 6.757 43.67 5.94C43.67 3.184 41.428 0.94 38.67 0.94C37.485 0.94 36.333 1.364 35.43 2.132L35.367 2.188L28.052 8.614L28.622 9.181C28.658 9.219 28.698 9.259 28.744 9.311C29.084 9.698 29.699 9.746 30.094 9.429L36.69 3.629C37.246 3.156 37.947 2.899 38.67 2.899C40.35 2.899 41.716 4.264 41.716 5.944C41.716 6.447 41.599 6.924 41.366 7.364L34.576 20.117L18.59 4.12C16.53 2.065 13.796 0.93 10.886 0.93C7.976 0.93 5.241 2.064 3.186 4.12C1.13 6.176 0 8.91 0 11.823C0 14.736 1.132 17.47 3.186 19.523C5.242 21.583 7.976 22.713 10.886 22.713C13.778 22.713 16.501 21.593 18.553 19.559L22.669 15.939L22.109 15.379C22.069 15.339 22.019 15.299 21.979 15.249C21.629 14.859 20.979 14.809 20.589 15.159L17.249 18.099C15.509 19.829 13.269 20.759 10.879 20.759C8.489 20.759 6.244 19.829 4.559 18.139C2.873 16.449 1.944 14.209 1.944 11.819C1.944 9.429 2.874 7.179 4.559 5.499C6.246 3.809 8.489 2.879 10.879 2.879C13.266 2.879 15.509 3.809 17.199 5.495L34.119 22.415C34.179 22.465 34.209 22.485 34.236 22.508C34.261 22.528 34.286 22.544 34.316 22.561L34.39 22.601C34.436 22.621 34.466 22.631 34.497 22.644C34.527 22.654 34.557 22.664 34.587 22.67L34.687 22.69L34.777 22.7L34.853 22.702C34.897 22.692 34.93 22.688 34.963 22.684C34.99 22.68 35.02 22.674 35.051 22.664C35.086 22.656 35.111 22.648 35.139 22.639C35.169 22.629 35.199 22.619 35.229 22.605C35.265 22.588 35.289 22.575 35.315 22.56C35.345 22.546 35.369 22.53 35.393 22.51C35.423 22.49 35.453 22.47 35.478 22.446" fill="#00C091"/>
</svg>
