<svg width="12" height="12" viewBox="0 0 12 12" fill="none" xmlns="http://www.w3.org/2000/svg">
<path d="M11.599 5.39071C11.6062 6.00644 11.4993 6.61818 11.2836 7.19497C10.8918 8.20998 10.1357 8.94418 9.05536 8.94418C8.75207 8.95658 8.45184 8.87941 8.19212 8.7223C7.9324 8.56519 7.72469 8.3351 7.59488 8.06071C7.33687 8.33194 7.02789 8.54958 6.68562 8.70119C6.34335 8.85279 5.97454 8.93536 5.6003 8.94418C5.24829 8.96292 4.89625 8.90773 4.56686 8.78216C4.23747 8.65659 3.93804 8.46343 3.68783 8.21511C2.75071 7.23555 2.67235 5.07865 3.90706 3.89151C4.91088 2.92641 6.22442 2.90075 7.60561 3.12092C8.00216 3.1781 8.3932 3.2686 8.77455 3.39147L8.61689 6.7397C8.61689 7.37409 8.79056 7.69128 9.13792 7.69128C9.43023 7.69128 9.66346 7.4778 9.83761 7.05083C10.0295 6.51444 10.118 5.94653 10.0984 5.37718C10.1118 4.70038 9.95408 4.03115 9.63983 3.43158C9.32154 2.87368 8.85389 2.41565 8.28949 2.10902C7.72509 1.80238 7.08633 1.65931 6.44506 1.69589C5.60707 1.67421 4.77769 1.86926 4.0372 2.26217C2.56413 3.08221 1.92602 4.66257 1.92602 6.37727C1.89072 6.90368 1.9621 7.4318 2.13587 7.92996C2.30964 8.42812 2.58224 8.88606 2.9373 9.2763C4.40944 10.748 7.22871 10.3715 9.17897 9.65646V10.9714C8.14685 11.3973 7.03905 11.6093 5.92263 11.5946C4.18585 11.5946 2.83188 11.1381 1.86071 10.2251C0.889547 9.31206 0.403965 8.04268 0.403965 6.41691C0.365364 5.36769 0.610947 4.32753 1.11476 3.40637C1.61857 2.4852 2.36189 1.71727 3.26615 1.18372C4.23333 0.648209 5.32481 0.377711 6.43013 0.399608C8.29596 0.399608 10.034 1.14594 10.9548 2.76875C11.3954 3.57126 11.6175 4.47539 11.599 5.39071ZM4.57923 6.24712C4.57923 7.21114 4.9723 7.69314 5.75843 7.69314C6.75945 7.69314 7.01787 6.84512 7.0883 5.8441L7.1774 4.33138C6.91806 4.27818 6.65381 4.25269 6.38908 4.25535C5.19075 4.25442 4.57923 5.07258 4.57923 6.24712Z" fill="#3F9CDC"/>
</svg>
