<svg width="12" height="12" viewBox="0 0 12 12" fill="none" xmlns="http://www.w3.org/2000/svg">
<path d="M7.85275 7.22361L6.65385 8.40519C6.02882 8.02811 5.4482 7.5819 4.92297 7.07495C4.41699 6.54902 3.97101 5.9685 3.59325 5.34407L4.77381 4.14518C4.84472 4.07269 4.8926 3.98084 4.91144 3.8812C4.93028 3.78156 4.91924 3.67857 4.8797 3.58519L3.64925 0.710909C3.60074 0.597987 3.51335 0.506201 3.40294 0.452211C3.29253 0.398222 3.16642 0.385608 3.04751 0.416659L0.785147 1.01381C0.672108 1.04284 0.572356 1.10956 0.502377 1.20296C0.432398 1.29636 0.396382 1.41084 0.40028 1.52748C0.544037 4.15463 1.63646 6.64031 3.47463 8.52279C5.35753 10.3617 7.844 11.4545 10.472 11.5982C10.5886 11.6018 10.703 11.5657 10.7965 11.4958C10.8899 11.4258 10.9568 11.3262 10.9862 11.2133L11.5828 8.95296C11.6144 8.83382 11.6022 8.70728 11.5482 8.59644C11.4943 8.48559 11.4023 8.39784 11.2891 8.34919L8.41732 7.11823C8.32342 7.07756 8.21952 7.06587 8.11893 7.08464C8.01834 7.10342 7.92565 7.15181 7.85275 7.22361Z" fill="#3F9CDC"/>
</svg>
