<svg width="14" height="14" viewBox="0 0 14 14" fill="none" xmlns="http://www.w3.org/2000/svg">
<path d="M0.437485 0.866127C1.17885 0.884388 1.62544 1.00295 1.77724 1.22118C1.88048 1.37327 1.93219 2.02027 1.93219 3.16257V6.19777C1.93219 7.15185 1.98072 7.87179 2.07793 8.35793C2.21175 9.08094 2.46389 9.67351 2.83452 10.1352C3.19897 10.591 3.74292 10.9618 4.46593 11.2472C5.17687 11.5267 6.03971 11.6664 7.05438 11.6664C7.94145 11.6664 8.71628 11.5663 9.37876 11.3658C10.0288 11.1713 10.5818 10.9008 11.0374 10.5545C11.4873 10.2022 11.8275 9.82844 12.0582 9.43342C12.2162 9.15395 12.3409 8.78316 12.4321 8.3217C12.5597 7.65944 12.6053 6.73549 12.5688 5.5507C12.4838 3.25981 12.417 2.05676 12.3682 1.94129C12.3682 1.87454 12.3636 1.78033 12.3547 1.65883C12.3455 1.53723 12.3409 1.45535 12.3409 1.41276C12.3409 1.25477 12.3866 1.13011 12.4777 1.03906C12.5144 1.00263 12.7542 0.950885 13.1978 0.884036C13.4349 0.877971 13.6901 0.838353 13.9635 0.765567C13.988 0.619771 13.9999 0.525595 13.9999 0.482977C13.9999 0.403997 13.9819 0.249006 13.9453 0.0182285L13.7813 0C13.052 0.0790116 12.4566 0.109307 11.9947 0.0911108L10.1264 0H9.36076L9.3424 0.783923L9.4701 0.811186L10.3816 0.79299C10.6427 0.786924 10.8767 0.890262 11.0833 1.10297C11.1986 1.23057 11.2717 1.49784 11.302 1.90496L11.3383 2.44285C11.375 2.96538 11.4159 3.44989 11.4615 3.89644C11.5072 4.34305 11.5406 4.71525 11.5618 5.01291C11.583 5.31073 11.5937 5.6996 11.5937 6.17964C11.5937 7.12758 11.5299 7.82308 11.4023 8.26663C11.2992 8.61907 11.1379 8.9656 10.9194 9.30582C10.8158 9.476 10.6184 9.67039 10.3266 9.88929C10.0655 10.0896 9.76488 10.2446 9.42448 10.3539C8.89572 10.5242 8.3155 10.6091 7.6837 10.6091C7.14272 10.6091 6.60521 10.4664 6.07042 10.1807C5.69979 9.9803 5.40816 9.70084 5.19549 9.34227C4.92212 8.86846 4.76713 8.2545 4.73064 7.501L4.60304 4.94907L4.59375 2.86207C4.59375 2.82574 4.59219 2.74823 4.58916 2.62976C4.58609 2.51129 4.58456 2.41274 4.58456 2.33364C4.58456 1.61666 4.62405 1.21569 4.703 1.13058C4.81859 0.978627 5.05853 0.90268 5.4231 0.90268C5.8121 0.90268 6.18877 0.875385 6.55334 0.820699V0.738655L6.53514 0.155374L6.54417 0.0277099C6.36195 0.039841 6.10072 0.0459704 5.76041 0.0459704C5.57819 0.0520359 5.13454 0.0672317 4.4297 0.0915258C3.9313 0.109786 3.42093 0.118789 2.8984 0.118789C2.69176 0.118789 2.18746 0.0976552 1.38537 0.0550368C1.06942 0.0307746 0.72911 0.0186755 0.364539 0.0186755C0.20045 0.0186755 0.0789159 0.0216125 0 0.0277419L0.0273588 0.829862C0.075915 0.841865 0.212645 0.85406 0.437485 0.866127Z" fill="black"/>
<path d="M13.7082 12.8335H0.291869C0.206824 12.8335 0.13691 12.8608 0.0822247 12.9155C0.0274752 12.9703 0.000244141 13.0401 0.000244141 13.1252V13.7085C0.000244141 13.7936 0.0276029 13.8635 0.0822247 13.9181C0.13691 13.9729 0.206696 14 0.291869 14H13.7082C13.7934 14 13.8633 13.9728 13.9179 13.9181C13.9726 13.8635 13.9998 13.7936 13.9998 13.7085V13.1252C13.9998 13.0401 13.9725 12.9703 13.9179 12.9155C13.8634 12.8608 13.7934 12.8335 13.7082 12.8335Z" fill="black"/>
</svg>
